<?xml version="1.0" standalone="no"?>
<!DOCTYPE svg PUBLIC "-//W3C//DTD SVG 20010904//EN"
 "http://www.w3.org/TR/2001/REC-SVG-20010904/DTD/svg10.dtd">
<svg version="1.0" xmlns="http://www.w3.org/2000/svg"
 width="43.000000pt" height="58.000000pt" viewBox="0 0 43.000000 58.000000"
 preserveAspectRatio="xMidYMid meet">
<metadata>
Created by potrace 1.15, written by Peter Selinger 2001-2017
</metadata>
<g transform="translate(0.000000,58.000000) scale(0.100000,-0.100000)"
fill="#000000" stroke="none">
<path d="M145 560 c-6 -10 5 -13 42 -11 11 1 24 -3 28 -9 5 -8 -1 -11 -16 -8
-20 2 -23 -1 -21 -19 2 -12 -2 -24 -9 -28 -8 -5 -9 -1 -5 13 4 11 3 23 -3 26
-14 9 -41 -4 -41 -19 0 -7 -6 -16 -12 -19 -7 -3 -3 -3 10 0 15 4 22 1 22 -9 0
-8 7 -18 16 -21 9 -4 13 -2 8 5 -4 7 -1 10 7 7 8 -3 19 -14 25 -26 8 -16 13
-19 22 -10 20 20 53 16 83 -13 29 -27 38 -49 20 -49 -5 0 -7 -9 -4 -19 3 -13
12 -18 24 -16 23 5 24 -4 2 -20 -15 -11 -15 -14 0 -36 10 -13 17 -34 17 -46 0
-13 5 -23 10 -23 14 0 13 33 -2 48 -6 6 -8 15 -4 19 4 4 11 1 16 -7 8 -12 12
-12 27 5 25 28 26 82 2 88 -13 4 -19 14 -19 36 0 21 -5 31 -15 31 -17 0 -46
15 -84 43 -13 9 -19 17 -14 17 6 0 16 -6 23 -14 6 -8 17 -13 24 -10 8 3 29 -4
48 -14 27 -15 35 -17 35 -6 0 8 -9 14 -19 14 -10 0 -21 7 -24 15 -4 8 -12 15
-19 15 -6 0 -20 9 -30 20 -11 12 -32 21 -54 21 -31 2 -32 3 -8 6 16 3 26 10
24 16 -4 14 -124 20 -132 7z"/>
</g>
</svg>
